<mxfile host="65bd71144e">
    <diagram id="0mTT7QU-gVTSPPY6Bcpd" name="Page-1">
        <mxGraphModel dx="2926" dy="2286" grid="1" gridSize="10" guides="1" tooltips="1" connect="1" arrows="1" fold="1" page="1" pageScale="1" pageWidth="1169" pageHeight="827" math="0" shadow="0">
            <root>
                <mxCell id="0"/>
                <mxCell id="1" parent="0"/>
                <mxCell id="228" value="" style="shape=table;html=1;whiteSpace=wrap;startSize=0;container=1;collapsible=0;childLayout=tableLayout;labelBackgroundColor=#33FF33;fontSize=11;fontColor=#330066;" parent="1" vertex="1">
                    <mxGeometry x="80" y="100" width="540" height="360" as="geometry"/>
                </mxCell>
                <mxCell id="358" style="shape=tableRow;horizontal=0;startSize=0;swimlaneHead=0;swimlaneBody=0;top=0;left=0;bottom=0;right=0;collapsible=0;dropTarget=0;fillColor=none;points=[[0,0.5],[1,0.5]];portConstraint=eastwest;labelBackgroundColor=#33FF33;fontSize=19;fontColor=#330066;" parent="228" vertex="1">
                    <mxGeometry width="540" height="40" as="geometry"/>
                </mxCell>
                <mxCell id="359" value="" style="shape=partialRectangle;html=1;whiteSpace=wrap;connectable=0;fillColor=none;top=0;left=0;bottom=0;right=0;overflow=hidden;labelBackgroundColor=none;fontSize=19;fontColor=#330066;fontStyle=1" parent="358" vertex="1">
                    <mxGeometry width="60" height="40" as="geometry">
                        <mxRectangle width="60" height="40" as="alternateBounds"/>
                    </mxGeometry>
                </mxCell>
                <mxCell id="360" style="shape=partialRectangle;html=1;whiteSpace=wrap;connectable=0;fillColor=none;top=0;left=0;bottom=0;right=1;overflow=hidden;labelBackgroundColor=none;fontSize=19;fontColor=#330066;fontStyle=1;strokeColor=#1A1A1A;shadow=0;strokeWidth=5;" parent="358" vertex="1">
                    <mxGeometry x="60" width="60" height="40" as="geometry">
                        <mxRectangle width="60" height="40" as="alternateBounds"/>
                    </mxGeometry>
                </mxCell>
                <mxCell id="361" value="home" style="shape=partialRectangle;html=1;whiteSpace=wrap;connectable=0;fillColor=#33FF33;top=0;left=0;bottom=0;right=0;overflow=hidden;labelBackgroundColor=#33FF33;fontSize=12;fontColor=#999900;" parent="358" vertex="1">
                    <mxGeometry x="120" width="60" height="40" as="geometry">
                        <mxRectangle width="60" height="40" as="alternateBounds"/>
                    </mxGeometry>
                </mxCell>
                <mxCell id="362" value="dev" style="shape=partialRectangle;html=1;whiteSpace=wrap;connectable=0;fillColor=#FFCC99;top=0;left=0;bottom=0;right=0;overflow=hidden;labelBackgroundColor=none;fontSize=12;fontColor=#999900;" parent="358" vertex="1">
                    <mxGeometry x="180" width="60" height="40" as="geometry">
                        <mxRectangle width="60" height="40" as="alternateBounds"/>
                    </mxGeometry>
                </mxCell>
                <mxCell id="363" value="stage" style="shape=partialRectangle;html=1;whiteSpace=wrap;connectable=0;fillColor=#FFCC99;top=0;left=0;bottom=0;right=0;overflow=hidden;labelBackgroundColor=none;fontSize=12;fontColor=#999900;" parent="358" vertex="1">
                    <mxGeometry x="240" width="60" height="40" as="geometry">
                        <mxRectangle width="60" height="40" as="alternateBounds"/>
                    </mxGeometry>
                </mxCell>
                <mxCell id="364" value="prod" style="shape=partialRectangle;html=1;whiteSpace=wrap;connectable=0;fillColor=#FFCC99;top=0;left=0;bottom=0;right=0;overflow=hidden;labelBackgroundColor=none;fontSize=12;fontColor=#999900;" parent="358" vertex="1">
                    <mxGeometry x="300" width="60" height="40" as="geometry">
                        <mxRectangle width="60" height="40" as="alternateBounds"/>
                    </mxGeometry>
                </mxCell>
                <mxCell id="365" value="IoT" style="shape=partialRectangle;html=1;whiteSpace=wrap;connectable=0;fillColor=#FFCC99;top=0;left=0;bottom=0;right=0;overflow=hidden;labelBackgroundColor=none;fontSize=12;fontColor=#999900;" parent="358" vertex="1">
                    <mxGeometry x="360" width="60" height="40" as="geometry">
                        <mxRectangle width="60" height="40" as="alternateBounds"/>
                    </mxGeometry>
                </mxCell>
                <mxCell id="366" value="ISP" style="shape=partialRectangle;html=1;whiteSpace=wrap;connectable=0;fillColor=#FF99CC;top=0;left=0;bottom=0;right=0;overflow=hidden;labelBackgroundColor=none;fontSize=12;fontColor=#999900;" parent="358" vertex="1">
                    <mxGeometry x="420" width="60" height="40" as="geometry">
                        <mxRectangle width="60" height="40" as="alternateBounds"/>
                    </mxGeometry>
                </mxCell>
                <mxCell id="376" style="shape=partialRectangle;html=1;whiteSpace=wrap;connectable=0;fillColor=#FFE6CC;top=0;left=0;bottom=0;right=0;overflow=hidden;labelBackgroundColor=none;fontSize=12;fontColor=#999900;" parent="358" vertex="1">
                    <mxGeometry x="480" width="60" height="40" as="geometry">
                        <mxRectangle width="60" height="40" as="alternateBounds"/>
                    </mxGeometry>
                </mxCell>
                <mxCell id="229" value="" style="shape=tableRow;horizontal=0;startSize=0;swimlaneHead=0;swimlaneBody=0;top=0;left=0;bottom=0;right=0;collapsible=0;dropTarget=0;fillColor=none;points=[[0,0.5],[1,0.5]];portConstraint=eastwest;labelBackgroundColor=#33FF33;fontSize=19;fontColor=#330066;" parent="228" vertex="1">
                    <mxGeometry y="40" width="540" height="40" as="geometry"/>
                </mxCell>
                <mxCell id="342" style="shape=partialRectangle;html=1;whiteSpace=wrap;connectable=0;fillColor=none;top=0;left=0;bottom=0;right=0;overflow=hidden;labelBackgroundColor=none;fontSize=19;fontColor=#330066;fontStyle=1" parent="229" vertex="1">
                    <mxGeometry width="60" height="40" as="geometry">
                        <mxRectangle width="60" height="40" as="alternateBounds"/>
                    </mxGeometry>
                </mxCell>
                <mxCell id="230" value="&lt;font style=&quot;font-size: 10px;&quot;&gt;&lt;font color=&quot;#990000&quot;&gt;FROM&amp;nbsp;&lt;/font&gt; \ &lt;font color=&quot;#999900&quot;&gt;TO&lt;/font&gt;&lt;/font&gt;" style="shape=partialRectangle;html=1;whiteSpace=wrap;connectable=0;fillColor=#FFCCFF;top=0;left=0;bottom=1;right=1;overflow=hidden;labelBackgroundColor=none;fontSize=19;fontColor=#330066;fontStyle=1;strokeColor=#1A1A1A;shadow=0;strokeWidth=5;" parent="229" vertex="1">
                    <mxGeometry x="60" width="60" height="40" as="geometry">
                        <mxRectangle width="60" height="40" as="alternateBounds"/>
                    </mxGeometry>
                </mxCell>
                <mxCell id="231" value="LAN" style="shape=partialRectangle;html=1;whiteSpace=wrap;connectable=0;fillColor=#33FF33;top=0;left=0;bottom=1;right=0;overflow=hidden;labelBackgroundColor=#33FF33;fontSize=12;fontColor=#999900;strokeColor=#1A1A1A;strokeWidth=5;" parent="229" vertex="1">
                    <mxGeometry x="120" width="60" height="40" as="geometry">
                        <mxRectangle width="60" height="40" as="alternateBounds"/>
                    </mxGeometry>
                </mxCell>
                <mxCell id="232" value="&lt;span style=&quot;font-size: 12px;&quot;&gt;VLAN101&lt;/span&gt;" style="shape=partialRectangle;html=1;whiteSpace=wrap;connectable=0;fillColor=#FFCC99;top=0;left=0;bottom=1;right=0;overflow=hidden;labelBackgroundColor=none;fontSize=19;fontColor=#999900;strokeColor=#1A1A1A;strokeWidth=5;" parent="229" vertex="1">
                    <mxGeometry x="180" width="60" height="40" as="geometry">
                        <mxRectangle width="60" height="40" as="alternateBounds"/>
                    </mxGeometry>
                </mxCell>
                <mxCell id="296" value="&lt;span style=&quot;font-size: 12px;&quot;&gt;VLAN102&lt;/span&gt;" style="shape=partialRectangle;html=1;whiteSpace=wrap;connectable=0;fillColor=#FFCC99;top=0;left=0;bottom=1;right=0;overflow=hidden;labelBackgroundColor=none;fontSize=19;fontColor=#999900;strokeColor=#1A1A1A;strokeWidth=5;" parent="229" vertex="1">
                    <mxGeometry x="240" width="60" height="40" as="geometry">
                        <mxRectangle width="60" height="40" as="alternateBounds"/>
                    </mxGeometry>
                </mxCell>
                <mxCell id="305" value="&lt;span style=&quot;font-size: 12px;&quot;&gt;VLAN102&lt;/span&gt;" style="shape=partialRectangle;html=1;whiteSpace=wrap;connectable=0;fillColor=#FFCC99;top=0;left=0;bottom=1;right=0;overflow=hidden;labelBackgroundColor=none;fontSize=19;fontColor=#999900;strokeColor=#1A1A1A;strokeWidth=5;" parent="229" vertex="1">
                    <mxGeometry x="300" width="60" height="40" as="geometry">
                        <mxRectangle width="60" height="40" as="alternateBounds"/>
                    </mxGeometry>
                </mxCell>
                <mxCell id="310" value="&lt;span style=&quot;font-size: 12px;&quot;&gt;VLAN102&lt;/span&gt;" style="shape=partialRectangle;html=1;whiteSpace=wrap;connectable=0;fillColor=#FFCC99;top=0;left=0;bottom=1;right=0;overflow=hidden;labelBackgroundColor=none;fontSize=19;fontColor=#999900;strokeColor=#1A1A1A;strokeWidth=5;" parent="229" vertex="1">
                    <mxGeometry x="360" width="60" height="40" as="geometry">
                        <mxRectangle width="60" height="40" as="alternateBounds"/>
                    </mxGeometry>
                </mxCell>
                <mxCell id="329" value="&lt;span style=&quot;font-size: 12px;&quot;&gt;WAN&lt;/span&gt;" style="shape=partialRectangle;html=1;whiteSpace=wrap;connectable=0;fillColor=#FF99CC;top=0;left=0;bottom=1;right=0;overflow=hidden;labelBackgroundColor=none;fontSize=19;fontColor=#999900;strokeColor=#1A1A1A;strokeWidth=5;" parent="229" vertex="1">
                    <mxGeometry x="420" width="60" height="40" as="geometry">
                        <mxRectangle width="60" height="40" as="alternateBounds"/>
                    </mxGeometry>
                </mxCell>
                <mxCell id="377" value="&lt;span style=&quot;color: rgb(153, 0, 0); font-size: 12px;&quot;&gt;router (input)&lt;/span&gt;" style="shape=partialRectangle;html=1;whiteSpace=wrap;connectable=0;fillColor=#FFE6CC;top=0;left=0;bottom=1;right=0;overflow=hidden;labelBackgroundColor=none;fontSize=12;fontColor=#999900;spacing=0;strokeColor=#1A1A1A;strokeWidth=5;" parent="229" vertex="1">
                    <mxGeometry x="480" width="60" height="40" as="geometry">
                        <mxRectangle width="60" height="40" as="alternateBounds"/>
                    </mxGeometry>
                </mxCell>
                <mxCell id="233" value="" style="shape=tableRow;horizontal=0;startSize=0;swimlaneHead=0;swimlaneBody=0;top=0;left=0;bottom=0;right=0;collapsible=0;dropTarget=0;fillColor=none;points=[[0,0.5],[1,0.5]];portConstraint=eastwest;labelBackgroundColor=#33FF33;fontSize=19;fontColor=#330066;" parent="228" vertex="1">
                    <mxGeometry y="80" width="540" height="40" as="geometry"/>
                </mxCell>
                <mxCell id="343" value="home" style="shape=partialRectangle;html=1;whiteSpace=wrap;connectable=0;fillColor=#33FF33;top=0;left=0;bottom=0;right=0;overflow=hidden;labelBackgroundColor=#33FF33;fontSize=12;fontColor=#990000;" parent="233" vertex="1">
                    <mxGeometry width="60" height="40" as="geometry">
                        <mxRectangle width="60" height="40" as="alternateBounds"/>
                    </mxGeometry>
                </mxCell>
                <mxCell id="234" value="LAN" style="shape=partialRectangle;html=1;whiteSpace=wrap;connectable=0;fillColor=#33FF33;top=0;left=0;bottom=0;right=1;overflow=hidden;labelBackgroundColor=#33FF33;fontSize=12;fontColor=#990000;strokeColor=#1A1A1A;shadow=0;strokeWidth=5;" parent="233" vertex="1">
                    <mxGeometry x="60" width="60" height="40" as="geometry">
                        <mxRectangle width="60" height="40" as="alternateBounds"/>
                    </mxGeometry>
                </mxCell>
                <mxCell id="235" value="&lt;font style=&quot;font-size: 12px;&quot;&gt;forward all&lt;/font&gt;" style="shape=partialRectangle;html=1;whiteSpace=wrap;connectable=0;fillColor=#E6FFCC;top=0;left=0;bottom=0;right=0;overflow=hidden;labelBackgroundColor=none;fontSize=19;fontColor=#006600;" parent="233" vertex="1">
                    <mxGeometry x="120" width="60" height="40" as="geometry">
                        <mxRectangle width="60" height="40" as="alternateBounds"/>
                    </mxGeometry>
                </mxCell>
                <mxCell id="236" value="&lt;span style=&quot;color: rgb(0, 102, 0); font-size: 12px;&quot;&gt;forward all&lt;/span&gt;" style="shape=partialRectangle;html=1;whiteSpace=wrap;connectable=0;fillColor=#E6FFCC;top=0;left=0;bottom=0;right=0;overflow=hidden;labelBackgroundColor=none;fontSize=19;fontColor=#330066;" parent="233" vertex="1">
                    <mxGeometry x="180" width="60" height="40" as="geometry">
                        <mxRectangle width="60" height="40" as="alternateBounds"/>
                    </mxGeometry>
                </mxCell>
                <mxCell id="297" value="&lt;span style=&quot;color: rgb(0, 102, 0); font-size: 12px;&quot;&gt;forward all&lt;/span&gt;" style="shape=partialRectangle;html=1;whiteSpace=wrap;connectable=0;fillColor=#E6FFCC;top=0;left=0;bottom=0;right=0;overflow=hidden;labelBackgroundColor=none;fontSize=19;fontColor=#330066;" parent="233" vertex="1">
                    <mxGeometry x="240" width="60" height="40" as="geometry">
                        <mxRectangle width="60" height="40" as="alternateBounds"/>
                    </mxGeometry>
                </mxCell>
                <mxCell id="306" style="shape=partialRectangle;html=1;whiteSpace=wrap;connectable=0;fillColor=#FF9999;top=0;left=0;bottom=0;right=0;overflow=hidden;labelBackgroundColor=#33FF33;fontSize=19;fontColor=#330066;" parent="233" vertex="1">
                    <mxGeometry x="300" width="60" height="40" as="geometry">
                        <mxRectangle width="60" height="40" as="alternateBounds"/>
                    </mxGeometry>
                </mxCell>
                <mxCell id="311" value="&lt;span style=&quot;color: rgb(0, 102, 0); font-size: 12px;&quot;&gt;forward all&lt;/span&gt;" style="shape=partialRectangle;html=1;whiteSpace=wrap;connectable=0;fillColor=#E6FFCC;top=0;left=0;bottom=0;right=0;overflow=hidden;labelBackgroundColor=none;fontSize=19;fontColor=#330066;" parent="233" vertex="1">
                    <mxGeometry x="360" width="60" height="40" as="geometry">
                        <mxRectangle width="60" height="40" as="alternateBounds"/>
                    </mxGeometry>
                </mxCell>
                <mxCell id="330" value="&lt;span style=&quot;color: rgb(0, 102, 0); font-size: 12px;&quot;&gt;forward all&lt;/span&gt;" style="shape=partialRectangle;html=1;whiteSpace=wrap;connectable=0;fillColor=#E6FFCC;top=0;left=0;bottom=0;right=0;overflow=hidden;labelBackgroundColor=none;fontSize=19;fontColor=#330066;" parent="233" vertex="1">
                    <mxGeometry x="420" width="60" height="40" as="geometry">
                        <mxRectangle width="60" height="40" as="alternateBounds"/>
                    </mxGeometry>
                </mxCell>
                <mxCell id="378" value="&lt;span style=&quot;color: rgb(0, 102, 0); font-size: 12px;&quot;&gt;forward all&lt;/span&gt;" style="shape=partialRectangle;html=1;whiteSpace=wrap;connectable=0;fillColor=#E6FFCC;top=0;left=0;bottom=0;right=0;overflow=hidden;labelBackgroundColor=none;fontSize=19;fontColor=#330066;" parent="233" vertex="1">
                    <mxGeometry x="480" width="60" height="40" as="geometry">
                        <mxRectangle width="60" height="40" as="alternateBounds"/>
                    </mxGeometry>
                </mxCell>
                <mxCell id="237" value="" style="shape=tableRow;horizontal=0;startSize=0;swimlaneHead=0;swimlaneBody=0;top=0;left=0;bottom=0;right=0;collapsible=0;dropTarget=0;fillColor=none;points=[[0,0.5],[1,0.5]];portConstraint=eastwest;labelBackgroundColor=#33FF33;fontSize=19;fontColor=#330066;" parent="228" vertex="1">
                    <mxGeometry y="120" width="540" height="40" as="geometry"/>
                </mxCell>
                <mxCell id="344" value="dev" style="shape=partialRectangle;html=1;whiteSpace=wrap;connectable=0;fillColor=#FFCC99;top=0;left=0;bottom=0;right=0;overflow=hidden;labelBackgroundColor=none;fontSize=12;fontColor=#990000;" parent="237" vertex="1">
                    <mxGeometry width="60" height="40" as="geometry">
                        <mxRectangle width="60" height="40" as="alternateBounds"/>
                    </mxGeometry>
                </mxCell>
                <mxCell id="238" value="&lt;span style=&quot;font-size: 12px;&quot;&gt;VLAN101&lt;/span&gt;" style="shape=partialRectangle;html=1;whiteSpace=wrap;connectable=0;fillColor=#FFCC99;top=0;left=0;bottom=0;right=1;overflow=hidden;labelBackgroundColor=none;fontSize=19;fontColor=#990000;strokeColor=#1A1A1A;shadow=0;strokeWidth=5;" parent="237" vertex="1">
                    <mxGeometry x="60" width="60" height="40" as="geometry">
                        <mxRectangle width="60" height="40" as="alternateBounds"/>
                    </mxGeometry>
                </mxCell>
                <mxCell id="239" value="" style="shape=partialRectangle;html=1;whiteSpace=wrap;connectable=0;fillColor=#FF9999;top=0;left=0;bottom=0;right=0;overflow=hidden;labelBackgroundColor=#33FF33;fontSize=19;fontColor=#330066;" parent="237" vertex="1">
                    <mxGeometry x="120" width="60" height="40" as="geometry">
                        <mxRectangle width="60" height="40" as="alternateBounds"/>
                    </mxGeometry>
                </mxCell>
                <mxCell id="240" value="&lt;span style=&quot;font-size: 12px;&quot;&gt;yes&lt;/span&gt;" style="shape=partialRectangle;html=1;whiteSpace=wrap;connectable=0;fillColor=#E6FFCC;top=0;left=0;bottom=0;right=0;overflow=hidden;pointerEvents=1;labelBackgroundColor=none;fontSize=19;fontColor=#006600;" parent="237" vertex="1">
                    <mxGeometry x="180" width="60" height="40" as="geometry">
                        <mxRectangle width="60" height="40" as="alternateBounds"/>
                    </mxGeometry>
                </mxCell>
                <mxCell id="298" style="shape=partialRectangle;html=1;whiteSpace=wrap;connectable=0;fillColor=#FF9999;top=0;left=0;bottom=0;right=0;overflow=hidden;pointerEvents=1;labelBackgroundColor=#33FF33;fontSize=19;fontColor=#330066;" parent="237" vertex="1">
                    <mxGeometry x="240" width="60" height="40" as="geometry">
                        <mxRectangle width="60" height="40" as="alternateBounds"/>
                    </mxGeometry>
                </mxCell>
                <mxCell id="307" style="shape=partialRectangle;html=1;whiteSpace=wrap;connectable=0;fillColor=#FF9999;top=0;left=0;bottom=0;right=0;overflow=hidden;pointerEvents=1;labelBackgroundColor=#33FF33;fontSize=19;fontColor=#330066;" parent="237" vertex="1">
                    <mxGeometry x="300" width="60" height="40" as="geometry">
                        <mxRectangle width="60" height="40" as="alternateBounds"/>
                    </mxGeometry>
                </mxCell>
                <mxCell id="312" style="shape=partialRectangle;html=1;whiteSpace=wrap;connectable=0;fillColor=#FF9999;top=0;left=0;bottom=0;right=0;overflow=hidden;pointerEvents=1;labelBackgroundColor=#33FF33;fontSize=19;fontColor=#330066;" parent="237" vertex="1">
                    <mxGeometry x="360" width="60" height="40" as="geometry">
                        <mxRectangle width="60" height="40" as="alternateBounds"/>
                    </mxGeometry>
                </mxCell>
                <mxCell id="331" value="&lt;span style=&quot;color: rgb(0, 102, 0); font-size: 12px;&quot;&gt;forward all&lt;/span&gt;" style="shape=partialRectangle;html=1;whiteSpace=wrap;connectable=0;fillColor=#E6FFCC;top=0;left=0;bottom=0;right=0;overflow=hidden;pointerEvents=1;labelBackgroundColor=none;fontSize=19;fontColor=#330066;" parent="237" vertex="1">
                    <mxGeometry x="420" width="60" height="40" as="geometry">
                        <mxRectangle width="60" height="40" as="alternateBounds"/>
                    </mxGeometry>
                </mxCell>
                <mxCell id="379" value="&lt;span style=&quot;color: rgb(0, 102, 0); font-size: 12px;&quot;&gt;forward all&lt;/span&gt;" style="shape=partialRectangle;html=1;whiteSpace=wrap;connectable=0;fillColor=#E6FFCC;top=0;left=0;bottom=0;right=0;overflow=hidden;pointerEvents=1;labelBackgroundColor=none;fontSize=19;fontColor=#330066;" parent="237" vertex="1">
                    <mxGeometry x="480" width="60" height="40" as="geometry">
                        <mxRectangle width="60" height="40" as="alternateBounds"/>
                    </mxGeometry>
                </mxCell>
                <mxCell id="322" style="shape=tableRow;horizontal=0;startSize=0;swimlaneHead=0;swimlaneBody=0;top=0;left=0;bottom=0;right=0;collapsible=0;dropTarget=0;fillColor=none;points=[[0,0.5],[1,0.5]];portConstraint=eastwest;labelBackgroundColor=#33FF33;fontSize=19;fontColor=#330066;" parent="228" vertex="1">
                    <mxGeometry y="160" width="540" height="40" as="geometry"/>
                </mxCell>
                <mxCell id="345" value="stage" style="shape=partialRectangle;html=1;whiteSpace=wrap;connectable=0;fillColor=#FFCC99;top=0;left=0;bottom=0;right=0;overflow=hidden;labelBackgroundColor=none;fontSize=12;fontColor=#990000;" parent="322" vertex="1">
                    <mxGeometry width="60" height="40" as="geometry">
                        <mxRectangle width="60" height="40" as="alternateBounds"/>
                    </mxGeometry>
                </mxCell>
                <mxCell id="323" value="&lt;span style=&quot;font-family: Helvetica; font-size: 12px; font-style: normal; font-variant-ligatures: normal; font-variant-caps: normal; font-weight: 400; letter-spacing: normal; orphans: 2; text-align: center; text-indent: 0px; text-transform: none; widows: 2; word-spacing: 0px; -webkit-text-stroke-width: 0px; text-decoration-thickness: initial; text-decoration-style: initial; text-decoration-color: initial; float: none; display: inline !important;&quot;&gt;VLAN102&lt;br&gt;&lt;/span&gt;" style="shape=partialRectangle;html=1;whiteSpace=wrap;connectable=0;fillColor=#FFCC99;top=0;left=0;bottom=0;right=1;overflow=hidden;labelBackgroundColor=none;fontSize=19;fontColor=#990000;strokeColor=#1A1A1A;shadow=0;strokeWidth=5;" parent="322" vertex="1">
                    <mxGeometry x="60" width="60" height="40" as="geometry">
                        <mxRectangle width="60" height="40" as="alternateBounds"/>
                    </mxGeometry>
                </mxCell>
                <mxCell id="324" style="shape=partialRectangle;html=1;whiteSpace=wrap;connectable=0;fillColor=#FF9999;top=0;left=0;bottom=0;right=0;overflow=hidden;labelBackgroundColor=#33FF33;fontSize=19;fontColor=#330066;" parent="322" vertex="1">
                    <mxGeometry x="120" width="60" height="40" as="geometry">
                        <mxRectangle width="60" height="40" as="alternateBounds"/>
                    </mxGeometry>
                </mxCell>
                <mxCell id="325" style="shape=partialRectangle;html=1;whiteSpace=wrap;connectable=0;fillColor=#FF9999;top=0;left=0;bottom=0;right=0;overflow=hidden;pointerEvents=1;labelBackgroundColor=#33FF33;fontSize=19;fontColor=#330066;" parent="322" vertex="1">
                    <mxGeometry x="180" width="60" height="40" as="geometry">
                        <mxRectangle width="60" height="40" as="alternateBounds"/>
                    </mxGeometry>
                </mxCell>
                <mxCell id="326" value="&lt;span style=&quot;font-size: 12px;&quot;&gt;yes&lt;/span&gt;" style="shape=partialRectangle;html=1;whiteSpace=wrap;connectable=0;fillColor=#E6FFCC;top=0;left=0;bottom=0;right=0;overflow=hidden;pointerEvents=1;labelBackgroundColor=none;fontSize=19;fontColor=#006600;" parent="322" vertex="1">
                    <mxGeometry x="240" width="60" height="40" as="geometry">
                        <mxRectangle width="60" height="40" as="alternateBounds"/>
                    </mxGeometry>
                </mxCell>
                <mxCell id="327" style="shape=partialRectangle;html=1;whiteSpace=wrap;connectable=0;fillColor=#FF9999;top=0;left=0;bottom=0;right=0;overflow=hidden;pointerEvents=1;labelBackgroundColor=#33FF33;fontSize=19;fontColor=#330066;" parent="322" vertex="1">
                    <mxGeometry x="300" width="60" height="40" as="geometry">
                        <mxRectangle width="60" height="40" as="alternateBounds"/>
                    </mxGeometry>
                </mxCell>
                <mxCell id="328" style="shape=partialRectangle;html=1;whiteSpace=wrap;connectable=0;fillColor=#FF9999;top=0;left=0;bottom=0;right=0;overflow=hidden;pointerEvents=1;labelBackgroundColor=#33FF33;fontSize=19;fontColor=#330066;" parent="322" vertex="1">
                    <mxGeometry x="360" width="60" height="40" as="geometry">
                        <mxRectangle width="60" height="40" as="alternateBounds"/>
                    </mxGeometry>
                </mxCell>
                <mxCell id="332" value="&lt;span style=&quot;color: rgb(0, 102, 0); font-size: 12px;&quot;&gt;forward all&lt;/span&gt;" style="shape=partialRectangle;html=1;whiteSpace=wrap;connectable=0;fillColor=#E6FFCC;top=0;left=0;bottom=0;right=0;overflow=hidden;pointerEvents=1;labelBackgroundColor=none;fontSize=19;fontColor=#330066;" parent="322" vertex="1">
                    <mxGeometry x="420" width="60" height="40" as="geometry">
                        <mxRectangle width="60" height="40" as="alternateBounds"/>
                    </mxGeometry>
                </mxCell>
                <mxCell id="380" value="&lt;font style=&quot;font-size: 12px;&quot;&gt;only ports&amp;nbsp;&lt;br style=&quot;&quot;&gt;53,67,68&lt;/font&gt;" style="shape=partialRectangle;html=1;whiteSpace=wrap;connectable=0;fillColor=#E6FFCC;top=0;left=0;bottom=0;right=0;overflow=hidden;pointerEvents=1;labelBackgroundColor=none;fontSize=8;fontColor=#330066;spacing=0;" parent="322" vertex="1">
                    <mxGeometry x="480" width="60" height="40" as="geometry">
                        <mxRectangle width="60" height="40" as="alternateBounds"/>
                    </mxGeometry>
                </mxCell>
                <mxCell id="315" style="shape=tableRow;horizontal=0;startSize=0;swimlaneHead=0;swimlaneBody=0;top=0;left=0;bottom=0;right=0;collapsible=0;dropTarget=0;fillColor=none;points=[[0,0.5],[1,0.5]];portConstraint=eastwest;labelBackgroundColor=#33FF33;fontSize=19;fontColor=#330066;" parent="228" vertex="1">
                    <mxGeometry y="200" width="540" height="40" as="geometry"/>
                </mxCell>
                <mxCell id="346" value="prod" style="shape=partialRectangle;html=1;whiteSpace=wrap;connectable=0;fillColor=#FFCC99;top=0;left=0;bottom=0;right=0;overflow=hidden;labelBackgroundColor=none;fontSize=12;fontColor=#990000;" parent="315" vertex="1">
                    <mxGeometry width="60" height="40" as="geometry">
                        <mxRectangle width="60" height="40" as="alternateBounds"/>
                    </mxGeometry>
                </mxCell>
                <mxCell id="316" value="&lt;span style=&quot;font-size: 12px;&quot;&gt;VLAN103&lt;/span&gt;" style="shape=partialRectangle;html=1;whiteSpace=wrap;connectable=0;fillColor=#FFCC99;top=0;left=0;bottom=0;right=1;overflow=hidden;labelBackgroundColor=none;fontSize=19;fontColor=#990000;strokeColor=#1A1A1A;shadow=0;strokeWidth=5;" parent="315" vertex="1">
                    <mxGeometry x="60" width="60" height="40" as="geometry">
                        <mxRectangle width="60" height="40" as="alternateBounds"/>
                    </mxGeometry>
                </mxCell>
                <mxCell id="317" style="shape=partialRectangle;html=1;whiteSpace=wrap;connectable=0;fillColor=#FF9999;top=0;left=0;bottom=0;right=0;overflow=hidden;labelBackgroundColor=#33FF33;fontSize=19;fontColor=#330066;" parent="315" vertex="1">
                    <mxGeometry x="120" width="60" height="40" as="geometry">
                        <mxRectangle width="60" height="40" as="alternateBounds"/>
                    </mxGeometry>
                </mxCell>
                <mxCell id="318" style="shape=partialRectangle;html=1;whiteSpace=wrap;connectable=0;fillColor=#FF9999;top=0;left=0;bottom=0;right=0;overflow=hidden;pointerEvents=1;labelBackgroundColor=#33FF33;fontSize=19;fontColor=#330066;" parent="315" vertex="1">
                    <mxGeometry x="180" width="60" height="40" as="geometry">
                        <mxRectangle width="60" height="40" as="alternateBounds"/>
                    </mxGeometry>
                </mxCell>
                <mxCell id="319" style="shape=partialRectangle;html=1;whiteSpace=wrap;connectable=0;fillColor=#FF9999;top=0;left=0;bottom=0;right=0;overflow=hidden;pointerEvents=1;labelBackgroundColor=#33FF33;fontSize=19;fontColor=#330066;" parent="315" vertex="1">
                    <mxGeometry x="240" width="60" height="40" as="geometry">
                        <mxRectangle width="60" height="40" as="alternateBounds"/>
                    </mxGeometry>
                </mxCell>
                <mxCell id="320" value="&lt;span style=&quot;font-size: 12px;&quot;&gt;yes&lt;/span&gt;" style="shape=partialRectangle;html=1;whiteSpace=wrap;connectable=0;fillColor=#E6FFCC;top=0;left=0;bottom=0;right=0;overflow=hidden;pointerEvents=1;labelBackgroundColor=none;fontSize=19;fontColor=#006600;" parent="315" vertex="1">
                    <mxGeometry x="300" width="60" height="40" as="geometry">
                        <mxRectangle width="60" height="40" as="alternateBounds"/>
                    </mxGeometry>
                </mxCell>
                <mxCell id="321" style="shape=partialRectangle;html=1;whiteSpace=wrap;connectable=0;fillColor=#FF9999;top=0;left=0;bottom=0;right=0;overflow=hidden;pointerEvents=1;labelBackgroundColor=#33FF33;fontSize=19;fontColor=#330066;" parent="315" vertex="1">
                    <mxGeometry x="360" width="60" height="40" as="geometry">
                        <mxRectangle width="60" height="40" as="alternateBounds"/>
                    </mxGeometry>
                </mxCell>
                <mxCell id="333" value="&lt;span style=&quot;color: rgb(0, 102, 0); font-size: 12px;&quot;&gt;forward all&lt;/span&gt;" style="shape=partialRectangle;html=1;whiteSpace=wrap;connectable=0;fillColor=#E6FFCC;top=0;left=0;bottom=0;right=0;overflow=hidden;pointerEvents=1;labelBackgroundColor=none;fontSize=19;fontColor=#330066;" parent="315" vertex="1">
                    <mxGeometry x="420" width="60" height="40" as="geometry">
                        <mxRectangle width="60" height="40" as="alternateBounds"/>
                    </mxGeometry>
                </mxCell>
                <mxCell id="381" value="&lt;span style=&quot;font-size: 12px;&quot;&gt;only ports&amp;nbsp;&lt;/span&gt;&lt;br style=&quot;font-size: 12px;&quot;&gt;&lt;span style=&quot;font-size: 12px;&quot;&gt;53,67,68&lt;/span&gt;" style="shape=partialRectangle;html=1;whiteSpace=wrap;connectable=0;fillColor=#E6FFCC;top=0;left=0;bottom=0;right=0;overflow=hidden;pointerEvents=1;labelBackgroundColor=none;fontSize=12;fontColor=#330066;" parent="315" vertex="1">
                    <mxGeometry x="480" width="60" height="40" as="geometry">
                        <mxRectangle width="60" height="40" as="alternateBounds"/>
                    </mxGeometry>
                </mxCell>
                <mxCell id="300" style="shape=tableRow;horizontal=0;startSize=0;swimlaneHead=0;swimlaneBody=0;top=0;left=0;bottom=0;right=0;collapsible=0;dropTarget=0;fillColor=none;points=[[0,0.5],[1,0.5]];portConstraint=eastwest;labelBackgroundColor=#33FF33;fontSize=19;fontColor=#330066;" parent="228" vertex="1">
                    <mxGeometry y="240" width="540" height="40" as="geometry"/>
                </mxCell>
                <mxCell id="347" value="IoT" style="shape=partialRectangle;html=1;whiteSpace=wrap;connectable=0;fillColor=#FFCC99;top=0;left=0;bottom=0;right=0;overflow=hidden;labelBackgroundColor=none;fontSize=12;fontColor=#990000;" parent="300" vertex="1">
                    <mxGeometry width="60" height="40" as="geometry">
                        <mxRectangle width="60" height="40" as="alternateBounds"/>
                    </mxGeometry>
                </mxCell>
                <mxCell id="301" value="&lt;span style=&quot;font-size: 12px;&quot;&gt;VLAN104&lt;/span&gt;" style="shape=partialRectangle;html=1;whiteSpace=wrap;connectable=0;fillColor=#FFCC99;top=0;left=0;bottom=0;right=1;overflow=hidden;labelBackgroundColor=none;fontSize=19;fontColor=#990000;strokeColor=#1A1A1A;shadow=0;strokeWidth=5;" parent="300" vertex="1">
                    <mxGeometry x="60" width="60" height="40" as="geometry">
                        <mxRectangle width="60" height="40" as="alternateBounds"/>
                    </mxGeometry>
                </mxCell>
                <mxCell id="302" style="shape=partialRectangle;html=1;whiteSpace=wrap;connectable=0;fillColor=#FF9999;top=0;left=0;bottom=0;right=0;overflow=hidden;labelBackgroundColor=#33FF33;fontSize=19;fontColor=#330066;" parent="300" vertex="1">
                    <mxGeometry x="120" width="60" height="40" as="geometry">
                        <mxRectangle width="60" height="40" as="alternateBounds"/>
                    </mxGeometry>
                </mxCell>
                <mxCell id="303" style="shape=partialRectangle;html=1;whiteSpace=wrap;connectable=0;fillColor=#FF9999;top=0;left=0;bottom=0;right=0;overflow=hidden;pointerEvents=1;labelBackgroundColor=#33FF33;fontSize=19;fontColor=#330066;" parent="300" vertex="1">
                    <mxGeometry x="180" width="60" height="40" as="geometry">
                        <mxRectangle width="60" height="40" as="alternateBounds"/>
                    </mxGeometry>
                </mxCell>
                <mxCell id="304" style="shape=partialRectangle;html=1;whiteSpace=wrap;connectable=0;fillColor=#FF9999;top=0;left=0;bottom=0;right=0;overflow=hidden;pointerEvents=1;labelBackgroundColor=#33FF33;fontSize=19;fontColor=#330066;" parent="300" vertex="1">
                    <mxGeometry x="240" width="60" height="40" as="geometry">
                        <mxRectangle width="60" height="40" as="alternateBounds"/>
                    </mxGeometry>
                </mxCell>
                <mxCell id="308" style="shape=partialRectangle;html=1;whiteSpace=wrap;connectable=0;fillColor=#FF9999;top=0;left=0;bottom=0;right=0;overflow=hidden;pointerEvents=1;labelBackgroundColor=#33FF33;fontSize=19;fontColor=#330066;" parent="300" vertex="1">
                    <mxGeometry x="300" width="60" height="40" as="geometry">
                        <mxRectangle width="60" height="40" as="alternateBounds"/>
                    </mxGeometry>
                </mxCell>
                <mxCell id="313" value="&lt;span style=&quot;font-size: 12px;&quot;&gt;yes&lt;/span&gt;" style="shape=partialRectangle;html=1;whiteSpace=wrap;connectable=0;fillColor=#E6FFCC;top=0;left=0;bottom=0;right=0;overflow=hidden;pointerEvents=1;labelBackgroundColor=none;fontSize=19;fontColor=#006600;" parent="300" vertex="1">
                    <mxGeometry x="360" width="60" height="40" as="geometry">
                        <mxRectangle width="60" height="40" as="alternateBounds"/>
                    </mxGeometry>
                </mxCell>
                <mxCell id="334" style="shape=partialRectangle;html=1;whiteSpace=wrap;connectable=0;fillColor=#FF9999;top=0;left=0;bottom=0;right=0;overflow=hidden;pointerEvents=1;labelBackgroundColor=#33FF33;fontSize=19;fontColor=#330066;" parent="300" vertex="1">
                    <mxGeometry x="420" width="60" height="40" as="geometry">
                        <mxRectangle width="60" height="40" as="alternateBounds"/>
                    </mxGeometry>
                </mxCell>
                <mxCell id="382" style="shape=partialRectangle;html=1;whiteSpace=wrap;connectable=0;fillColor=#FF9999;top=0;left=0;bottom=0;right=0;overflow=hidden;pointerEvents=1;labelBackgroundColor=#33FF33;fontSize=19;fontColor=#330066;" parent="300" vertex="1">
                    <mxGeometry x="480" width="60" height="40" as="geometry">
                        <mxRectangle width="60" height="40" as="alternateBounds"/>
                    </mxGeometry>
                </mxCell>
                <mxCell id="292" style="shape=tableRow;horizontal=0;startSize=0;swimlaneHead=0;swimlaneBody=0;top=0;left=0;bottom=0;right=0;collapsible=0;dropTarget=0;fillColor=none;points=[[0,0.5],[1,0.5]];portConstraint=eastwest;labelBackgroundColor=#33FF33;fontSize=19;fontColor=#330066;" parent="228" vertex="1">
                    <mxGeometry y="280" width="540" height="40" as="geometry"/>
                </mxCell>
                <mxCell id="348" value="ISP" style="shape=partialRectangle;html=1;whiteSpace=wrap;connectable=0;fillColor=#FF99CC;top=0;left=0;bottom=0;right=0;overflow=hidden;labelBackgroundColor=none;fontSize=12;fontColor=#990000;" parent="292" vertex="1">
                    <mxGeometry width="60" height="40" as="geometry">
                        <mxRectangle width="60" height="40" as="alternateBounds"/>
                    </mxGeometry>
                </mxCell>
                <mxCell id="293" value="&lt;span style=&quot;font-size: 12px;&quot;&gt;WAN&lt;/span&gt;" style="shape=partialRectangle;html=1;whiteSpace=wrap;connectable=0;fillColor=#FF99CC;top=0;left=0;bottom=0;right=1;overflow=hidden;labelBackgroundColor=none;fontSize=19;fontColor=#990000;strokeColor=#1A1A1A;shadow=0;strokeWidth=5;" parent="292" vertex="1">
                    <mxGeometry x="60" width="60" height="40" as="geometry">
                        <mxRectangle width="60" height="40" as="alternateBounds"/>
                    </mxGeometry>
                </mxCell>
                <mxCell id="294" style="shape=partialRectangle;html=1;whiteSpace=wrap;connectable=0;fillColor=#FF9999;top=0;left=0;bottom=0;right=0;overflow=hidden;labelBackgroundColor=#33FF33;fontSize=19;fontColor=#330066;" parent="292" vertex="1">
                    <mxGeometry x="120" width="60" height="40" as="geometry">
                        <mxRectangle width="60" height="40" as="alternateBounds"/>
                    </mxGeometry>
                </mxCell>
                <mxCell id="295" style="shape=partialRectangle;html=1;whiteSpace=wrap;connectable=0;fillColor=#FF9999;top=0;left=0;bottom=0;right=0;overflow=hidden;pointerEvents=1;labelBackgroundColor=#33FF33;fontSize=19;fontColor=#330066;" parent="292" vertex="1">
                    <mxGeometry x="180" width="60" height="40" as="geometry">
                        <mxRectangle width="60" height="40" as="alternateBounds"/>
                    </mxGeometry>
                </mxCell>
                <mxCell id="299" value="&lt;font style=&quot;font-size: 12px;&quot;&gt;frwrd port XX&lt;/font&gt;" style="shape=partialRectangle;html=1;whiteSpace=wrap;connectable=0;fillColor=#E6FFCC;top=0;left=0;bottom=0;right=0;overflow=hidden;pointerEvents=1;labelBackgroundColor=none;fontSize=12;fontColor=#330066;spacing=0;fontFamily=Courier New;" parent="292" vertex="1">
                    <mxGeometry x="240" width="60" height="40" as="geometry">
                        <mxRectangle width="60" height="40" as="alternateBounds"/>
                    </mxGeometry>
                </mxCell>
                <mxCell id="309" value="&lt;span style=&quot;font-size: 12px;&quot;&gt;frwrd port YY&lt;/span&gt;" style="shape=partialRectangle;html=1;whiteSpace=wrap;connectable=0;fillColor=#E6FFCC;top=0;left=0;bottom=0;right=0;overflow=hidden;pointerEvents=1;labelBackgroundColor=none;fontSize=12;fontColor=#330066;spacing=0;fontFamily=Courier New;" parent="292" vertex="1">
                    <mxGeometry x="300" width="60" height="40" as="geometry">
                        <mxRectangle width="60" height="40" as="alternateBounds"/>
                    </mxGeometry>
                </mxCell>
                <mxCell id="314" style="shape=partialRectangle;html=1;whiteSpace=wrap;connectable=0;fillColor=#FF9999;top=0;left=0;bottom=0;right=0;overflow=hidden;pointerEvents=1;labelBackgroundColor=#33FF33;fontSize=19;fontColor=#330066;" parent="292" vertex="1">
                    <mxGeometry x="360" width="60" height="40" as="geometry">
                        <mxRectangle width="60" height="40" as="alternateBounds"/>
                    </mxGeometry>
                </mxCell>
                <mxCell id="335" style="shape=partialRectangle;html=1;whiteSpace=wrap;connectable=0;fillColor=#FF9999;top=0;left=0;bottom=0;right=0;overflow=hidden;pointerEvents=1;labelBackgroundColor=#33FF33;fontSize=19;fontColor=#330066;" parent="292" vertex="1">
                    <mxGeometry x="420" width="60" height="40" as="geometry">
                        <mxRectangle width="60" height="40" as="alternateBounds"/>
                    </mxGeometry>
                </mxCell>
                <mxCell id="383" style="shape=partialRectangle;html=1;whiteSpace=wrap;connectable=0;fillColor=#FF9999;top=0;left=0;bottom=0;right=0;overflow=hidden;pointerEvents=1;labelBackgroundColor=#33FF33;fontSize=19;fontColor=#330066;" parent="292" vertex="1">
                    <mxGeometry x="480" width="60" height="40" as="geometry">
                        <mxRectangle width="60" height="40" as="alternateBounds"/>
                    </mxGeometry>
                </mxCell>
                <mxCell id="367" style="shape=tableRow;horizontal=0;startSize=0;swimlaneHead=0;swimlaneBody=0;top=0;left=0;bottom=0;right=0;collapsible=0;dropTarget=0;fillColor=none;points=[[0,0.5],[1,0.5]];portConstraint=eastwest;labelBackgroundColor=#33FF33;fontSize=19;fontColor=#330066;" parent="228" vertex="1">
                    <mxGeometry y="320" width="540" height="40" as="geometry"/>
                </mxCell>
                <mxCell id="368" style="shape=partialRectangle;html=1;whiteSpace=wrap;connectable=0;fillColor=#FFE6CC;top=0;left=0;bottom=0;right=0;overflow=hidden;labelBackgroundColor=none;fontSize=12;fontColor=#990000;" parent="367" vertex="1">
                    <mxGeometry width="60" height="40" as="geometry">
                        <mxRectangle width="60" height="40" as="alternateBounds"/>
                    </mxGeometry>
                </mxCell>
                <mxCell id="369" value="&lt;font style=&quot;font-size: 12px;&quot;&gt;router (output)&lt;/font&gt;" style="shape=partialRectangle;html=1;whiteSpace=wrap;connectable=0;fillColor=#FFE6CC;top=0;left=0;bottom=0;right=1;overflow=hidden;labelBackgroundColor=none;fontSize=12;fontColor=#990000;spacing=0;strokeColor=#1A1A1A;shadow=0;strokeWidth=5;" parent="367" vertex="1">
                    <mxGeometry x="60" width="60" height="40" as="geometry">
                        <mxRectangle width="60" height="40" as="alternateBounds"/>
                    </mxGeometry>
                </mxCell>
                <mxCell id="370" value="&lt;span style=&quot;color: rgb(0, 102, 0); font-size: 12px;&quot;&gt;forward all&lt;/span&gt;" style="shape=partialRectangle;html=1;whiteSpace=wrap;connectable=0;fillColor=#E6FFCC;top=0;left=0;bottom=0;right=0;overflow=hidden;labelBackgroundColor=none;fontSize=19;fontColor=#330066;" parent="367" vertex="1">
                    <mxGeometry x="120" width="60" height="40" as="geometry">
                        <mxRectangle width="60" height="40" as="alternateBounds"/>
                    </mxGeometry>
                </mxCell>
                <mxCell id="371" value="&lt;span style=&quot;color: rgb(0, 102, 0); font-size: 12px;&quot;&gt;forward all&lt;/span&gt;" style="shape=partialRectangle;html=1;whiteSpace=wrap;connectable=0;fillColor=#E6FFCC;top=0;left=0;bottom=0;right=0;overflow=hidden;pointerEvents=1;labelBackgroundColor=none;fontSize=19;fontColor=#330066;" parent="367" vertex="1">
                    <mxGeometry x="180" width="60" height="40" as="geometry">
                        <mxRectangle width="60" height="40" as="alternateBounds"/>
                    </mxGeometry>
                </mxCell>
                <mxCell id="372" value="&lt;span style=&quot;color: rgb(0, 102, 0); font-family: Helvetica; font-size: 12px;&quot;&gt;forward all&lt;/span&gt;" style="shape=partialRectangle;html=1;whiteSpace=wrap;connectable=0;fillColor=#E6FFCC;top=0;left=0;bottom=0;right=0;overflow=hidden;pointerEvents=1;labelBackgroundColor=none;fontSize=19;fontColor=#330066;spacing=0;fontFamily=Courier New;" parent="367" vertex="1">
                    <mxGeometry x="240" width="60" height="40" as="geometry">
                        <mxRectangle width="60" height="40" as="alternateBounds"/>
                    </mxGeometry>
                </mxCell>
                <mxCell id="373" value="&lt;span style=&quot;color: rgb(0, 102, 0); font-family: Helvetica; font-size: 12px;&quot;&gt;forward all&lt;/span&gt;" style="shape=partialRectangle;html=1;whiteSpace=wrap;connectable=0;fillColor=#E6FFCC;top=0;left=0;bottom=0;right=0;overflow=hidden;pointerEvents=1;labelBackgroundColor=none;fontSize=19;fontColor=#330066;spacing=0;fontFamily=Courier New;" parent="367" vertex="1">
                    <mxGeometry x="300" width="60" height="40" as="geometry">
                        <mxRectangle width="60" height="40" as="alternateBounds"/>
                    </mxGeometry>
                </mxCell>
                <mxCell id="374" value="&lt;span style=&quot;color: rgb(0, 102, 0); font-size: 12px;&quot;&gt;forward all&lt;/span&gt;" style="shape=partialRectangle;html=1;whiteSpace=wrap;connectable=0;fillColor=#E6FFCC;top=0;left=0;bottom=0;right=0;overflow=hidden;pointerEvents=1;labelBackgroundColor=none;fontSize=19;fontColor=#330066;" parent="367" vertex="1">
                    <mxGeometry x="360" width="60" height="40" as="geometry">
                        <mxRectangle width="60" height="40" as="alternateBounds"/>
                    </mxGeometry>
                </mxCell>
                <mxCell id="375" value="" style="shape=partialRectangle;html=1;whiteSpace=wrap;connectable=0;fillColor=#FF9999;top=0;left=0;bottom=0;right=0;overflow=hidden;pointerEvents=1;labelBackgroundColor=none;fontSize=19;fontColor=#330066;" parent="367" vertex="1">
                    <mxGeometry x="420" width="60" height="40" as="geometry">
                        <mxRectangle width="60" height="40" as="alternateBounds"/>
                    </mxGeometry>
                </mxCell>
                <mxCell id="384" value="" style="shape=partialRectangle;html=1;whiteSpace=wrap;connectable=0;fillColor=#FF9999;top=0;left=0;bottom=0;right=0;overflow=hidden;pointerEvents=1;labelBackgroundColor=none;fontSize=19;fontColor=#330066;" parent="367" vertex="1">
                    <mxGeometry x="480" width="60" height="40" as="geometry">
                        <mxRectangle width="60" height="40" as="alternateBounds"/>
                    </mxGeometry>
                </mxCell>
                <mxCell id="386" value="Trargeted network communication" style="text;html=1;strokeColor=none;fillColor=none;align=center;verticalAlign=middle;whiteSpace=wrap;rounded=0;shadow=0;labelBackgroundColor=none;sketch=0;strokeWidth=5;fontFamily=Courier New;fontSize=24;fontColor=default;" parent="1" vertex="1">
                    <mxGeometry x="130" y="50" width="494" height="30" as="geometry"/>
                </mxCell>
            </root>
        </mxGraphModel>
    </diagram>
</mxfile>